<?xml version="1.0" encoding="utf-8"?>
<!-- Generator: Adobe Illustrator 16.0.0, SVG Export Plug-In . SVG Version: 6.00 Build 0)  -->
<!DOCTYPE svg PUBLIC "-//W3C//DTD SVG 1.1//EN" "http://www.w3.org/Graphics/SVG/1.1/DTD/svg11.dtd">
<svg version="1.1" id="Layer_1" xmlns="http://www.w3.org/2000/svg" xmlns:xlink="http://www.w3.org/1999/xlink" x="0px" y="0px"
	 width="185.657px" height="221.761px" viewBox="0 0 185.657 221.761" enable-background="new 0 0 185.657 221.761"
	 xml:space="preserve">
<g>
	<g>
		<g>
			<path fill="#FDDD34" d="M94.685,145.111c8.766,8.327,19.35,14.546,30.438,19.272c0-1.161,0-2.321,0-3.482
				c-28.443,18.27-58.875,32.546-91.402,41.889c0.864,0.658,1.729,1.316,2.593,1.976c0.252-29.599,4.626-59.035,13.271-87.354
				c-1.016,0.414-2.032,0.827-3.047,1.24c10.39,4.771,20.773,9.556,31.171,14.308c1.142,0.522,2.3,0.281,3.024-0.792
				c24.986-37.086,50.977-73.483,77.944-109.153c-1.008,0.264-2.016,0.528-3.023,0.792c5.787,2.615,11.573,5.229,17.359,7.844
				c-0.264-1.008-0.528-2.016-0.793-3.023c-25.223,38.939-50.492,77.848-75.764,116.755c-1.522,2.345,2.226,4.518,3.739,2.186
				c25.264-38.913,50.53-77.826,75.841-116.709c0.604-0.927,0.261-2.548-0.793-3.024c-5.785-2.614-11.572-5.229-17.359-7.844
				c-1.191-0.538-2.236-0.246-3.023,0.793c-26.967,35.671-52.958,72.068-77.945,109.153c1.008-0.265,2.016-0.528,3.024-0.792
				c-10.428-4.709-20.872-9.385-31.309-14.075c-1.222-0.55-2.636-0.149-3.048,1.239c-8.531,28.771-13.115,58.439-13.368,88.458
				c-0.011,1.32,1.319,2.341,2.593,1.976c32.615-9.372,64.104-23.483,92.349-42.357c1.54-1.029,1.125-3.035-0.481-3.686
				c-11.008-4.459-20.915-10.593-30.641-17.34C94.99,142.631,93.775,144.247,94.685,145.111L94.685,145.111z"/>
		</g>
	</g>
	<g>
		<g>
			<path fill="#FDDD34" d="M37.102,193.575c14.777-3.742,29.647-6.173,44.702-8.427c2.277-0.341,2.856-3.2,1.997-4.907
				c-2.969-5.894-13.495-3.758-18.65-3.486c-9.196,0.485-18.341,1.68-27.373,3.465c0.52,1.884,1.039,3.768,1.558,5.65
				c16.494-3.314,32.996-6.585,49.495-9.876c4.207-0.839,2.379-7.07-1.758-6.376c-15.761,2.649-31.603,4.509-47.566,5.344
				c0.292,2.162,0.584,4.324,0.877,6.487c17.416-4.765,35.115-8.409,52.965-11.115c4.362-0.661,2.491-7.24-1.823-6.615
				c-16.676,2.414-33.457,3.85-50.3,4.289c0.305,2.249,0.609,4.497,0.913,6.746c18.963-3.733,37.963-7.286,56.945-10.919
				c4.034-0.771,3.174-7.637-0.98-7.241c-16.562,1.574-33.108,3.317-49.66,4.992c0.323,2.389,0.647,4.777,0.97,7.166
				c14.465-3.929,29.147-6.874,44.016-8.787c-0.332-2.452-0.664-4.903-0.995-7.354c-15.843,2.622-31.81,4.204-47.863,4.667
				c0.327,2.412,0.653,4.823,0.979,7.235c15.802-4.204,31.896-7.164,48.138-9.027c4.863-0.559,5.057-8.162,0-7.773
				c-15.092,1.162-30.173,2.423-45.255,3.712c0.347,2.563,0.693,5.126,1.04,7.688c12.86-5.358,26.415-6.962,40.169-8.299
				c0-2.602,0-5.203,0-7.805c-16.167,1.998-32.658,4.063-48.846,1.188c0,2.553,0,5.105,0,7.658
				c15.291-2.416,30.586-4.801,45.881-7.186c4.422-0.689,3.433-8.292-1.065-7.871c-12.107,1.132-24.217,1.12-36.323-0.014
				c0.358,2.651,0.717,5.302,1.076,7.952c7.684-2.536,15.484-4.04,23.57-4.432c0-2.703,0-5.406,0-8.11
				c-10.54,1.131-21.074,1.104-31.607-0.078c0,2.709,0,5.418,0,8.127c18.173-1.348,36.381-1.607,54.585-0.76
				c0-2.728,0-5.455,0-8.183c-10.429,0.661-20.858,1.322-31.288,1.983c0.366,2.701,0.73,5.401,1.096,8.103
				c12.609-2.863,25.154-5.983,37.635-9.359c4.39-1.188,3.691-8.646-1.107-8.185c-6.549,0.631-13.097,1.264-19.646,1.892
				c0.705,2.603,1.409,5.204,2.114,7.806c8.272-4.271,16.839-7.615,25.801-10.129c5.322-1.492,3.037-9.111-2.25-8.161
				c-7.192,1.293-14.385,2.587-21.578,3.88c1.096,2.598,2.191,5.196,3.287,7.795c8.18-3.823,16.572-7.019,25.201-9.671
				c5.344-1.642,3.118-9.373-2.289-8.306c-5.701,1.125-11.403,2.25-17.105,3.375c1.113,2.64,2.226,5.279,3.339,7.92
				c6.669-4.564,13.747-8.074,21.459-10.505c5.386-1.696,3.174-9.598-2.323-8.429c-6.016,1.278-12.03,2.557-18.046,3.836
				c1.129,2.68,2.259,5.359,3.389,8.039c6.851-4.721,14.118-8.583,21.929-11.464c-1.145-2.717-2.291-5.434-3.436-8.15
				c-5.115,2.182-10.516,3.343-16.054,3.63c0.759,2.801,1.517,5.602,2.275,8.402c5.782-4.164,11.938-7.652,18.579-10.256
				c5.344-2.094,3.309-10.588-2.429-8.809c-5.202,1.613-10.406,3.222-15.606,4.844c1.184,2.807,2.367,5.613,3.551,8.419
				c7.576-5.646,15.65-10.415,24.252-14.325c-1.558-2.666-3.116-5.331-4.674-7.997c-4.632,2.499-9.41,4.369-14.491,5.728
				c1.507,2.589,3.013,5.177,4.521,7.766c5.338-4.58,11.043-8.567,17.127-12.092c5.35-3.098,0.654-10.34-4.709-8.057
				c-4.485,1.91-8.972,3.82-13.457,5.73c1.89,2.449,3.779,4.898,5.669,7.348c6.149-5.369,12.544-10.396,19.224-15.089
				c4.005-2.814,1.679-10.729-3.622-8.592c-5.406,2.181-10.813,4.36-16.22,6.54c1.529,2.627,3.059,5.254,4.588,7.881
				c6.5-5.868,13.527-10.883,21.148-15.19c-1.594-2.729-3.189-5.457-4.784-8.185c-4.506,3.25-9.241,5.365-14.681,6.508
				c1.542,2.649,3.084,5.299,4.626,7.947c8.067-7.744,16.767-14.637,26.166-20.697c5.149-3.319,0.497-11.442-4.831-8.264
				c-6.006,3.585-12.223,6.611-18.791,9.026c1.557,2.675,3.115,5.351,4.672,8.025c5.791-5.023,11.808-9.721,18.094-14.11
				c5.03-3.515,0.273-11.834-4.857-8.309c-4.85,3.334-9.938,5.967-15.522,7.846c1.237,2.935,2.476,5.87,3.712,8.805
				c6.318-4.764,12.455-9.735,18.383-14.979c3.418-3.023,0.41-7.889-3.412-8.238c-2.417-0.223-4.236,0.684-6.007,2.271
				c-4.638,4.154,2.209,10.964,6.827,6.826c-0.273,0.185-0.547,0.369-0.82,0.554c-1.137-2.746-2.275-5.492-3.412-8.238
				c-5.307,4.701-10.764,9.212-16.422,13.484c-3.979,3.005-1.932,10.71,3.713,8.806c6.353-2.143,12.291-5.024,17.818-8.828
				c-1.619-2.77-3.238-5.539-4.857-8.309c-6.947,4.861-13.625,10.066-20.027,15.628c-3.541,3.076,0.205,9.672,4.672,8.025
				c7.338-2.703,14.361-6.003,21.069-10.022c-1.61-2.754-3.22-5.509-4.831-8.264c-10.053,6.506-19.436,13.929-28.059,22.237
				c-3.59,3.457,0.174,8.891,4.625,7.947c6.152-1.304,11.844-3.806,16.938-7.494c4.848-3.509,0.635-11.261-4.784-8.185
				c-8.29,4.705-15.97,10.307-23.032,16.706c-3.33,3.017,0.16,9.676,4.588,7.882c5.404-2.189,10.807-4.379,16.211-6.568
				c-1.207-2.863-2.414-5.728-3.622-8.592c-7.32,5.164-14.356,10.688-21.095,16.592c-4.346,3.807,1.199,9.259,5.67,7.347
				c4.48-1.918,8.963-3.835,13.443-5.753c-1.568-2.686-3.139-5.371-4.709-8.057c-6.76,3.932-13.063,8.477-18.988,13.578
				c-3.633,3.127,0.26,8.912,4.52,7.765c5.833-1.571,11.387-3.813,16.695-6.69c5.328-2.887,0.65-10.428-4.674-7.997
				c-8.596,3.925-16.662,8.708-24.229,14.368c-3.867,2.892-1.848,10.113,3.549,8.419c5.197-1.632,10.391-3.277,15.586-4.919
				c-0.81-2.936-1.619-5.873-2.429-8.809c-7.39,2.941-14.265,6.59-20.701,11.277c-3.286,2.393-2.616,8.682,2.275,8.402
				c7.228-0.414,13.919-2.076,20.554-4.946c4.592-1.986,1.3-9.925-3.436-8.15c-8.517,3.191-16.52,7.282-23.998,12.468
				c-4.075,2.826-1.619,9.119,3.39,8.039c6.01-1.296,12.021-2.593,18.03-3.89c-0.773-2.81-1.549-5.619-2.323-8.429
				c-8.39,2.671-16.257,6.455-23.51,11.45c-4.068,2.802-1.566,8.903,3.339,7.92c5.697-1.142,11.393-2.284,17.09-3.426
				c-0.764-2.769-1.526-5.538-2.289-8.306c-9.323,2.896-18.387,6.451-27.217,10.611c-4.65,2.191-1.153,8.607,3.286,7.795
				c7.187-1.314,14.373-2.629,21.56-3.943c-0.75-2.721-1.5-5.44-2.25-8.161c-9.629,2.731-18.9,6.438-27.779,11.057
				c-3.546,1.845-2.056,8.218,2.114,7.805c6.548-0.647,13.097-1.29,19.646-1.936c-0.37-2.728-0.739-5.456-1.108-8.185
				c-12.473,3.404-25.011,6.551-37.613,9.44c-4.473,1.025-3.585,8.409,1.097,8.103c10.429-0.684,20.858-1.367,31.288-2.051
				c5.233-0.344,5.296-7.947,0-8.183c-18.204-0.809-36.414-0.542-54.585,0.815c-5.291,0.396-5.154,7.551,0,8.127
				c10.535,1.178,21.068,1.197,31.607,0.062c5.071-0.546,5.308-8.369,0-8.11c-8.793,0.431-17.361,1.97-25.723,4.734
				c-4.473,1.48-3.434,7.533,1.077,7.953c12.108,1.127,24.218,1.096,36.323-0.07c-0.355-2.623-0.71-5.247-1.065-7.871
				c-15.286,2.428-30.571,4.858-45.862,7.256c-3.83,0.6-3.752,6.986,0,7.658c17.032,3.049,33.952,1.211,50.957-1.041
				c4.864-0.644,5.048-8.34,0-7.805c-14.298,1.516-28.826,3.094-42.25,8.555c-3.702,1.507-3.773,8.073,1.041,7.689
				c15.09-1.205,30.175-2.437,45.255-3.768c0-2.592,0-5.183,0-7.773c-16.917,2.133-33.592,5.417-50.097,9.697
				c-3.991,1.035-3.209,7.33,0.979,7.235c16.732-0.378,33.363-1.958,49.854-4.813c4.804-0.832,2.672-7.855-1.991-7.221
				c-15.173,2.067-30.172,5.134-44.961,9.105c-3.847,1.033-3.229,7.58,0.97,7.167c16.554-1.628,33.116-3.188,49.66-4.916
				c-0.327-2.414-0.653-4.828-0.98-7.241c-18.935,3.808-37.856,7.697-56.811,11.405c-3.82,0.747-2.921,6.841,0.913,6.746
				c17.464-0.435,34.849-1.943,52.124-4.543c-0.608-2.205-1.216-4.41-1.823-6.615c-17.846,2.808-35.458,6.66-52.897,11.361
				c-3.524,0.95-2.913,6.671,0.878,6.487c16.546-0.805,33.026-2.583,49.324-5.573c-0.586-2.125-1.172-4.25-1.758-6.376
				c-16.431,3.535-32.858,7.09-49.294,10.602c-3.722,0.796-2.106,6.291,1.558,5.65c6.971-1.217,13.973-2.094,21.038-2.519
				c3.184-0.19,6.371-0.3,9.56-0.324c1.165-0.009,7.514-0.63,8.098,0.586c0.666-1.636,1.332-3.271,1.997-4.907
				c-14.933,2.11-29.746,6.052-44.097,10.618C33.235,190.181,34.336,194.275,37.102,193.575L37.102,193.575z"/>
		</g>
	</g>
	<g>
		<g>
			<path fill="#FDDD34" d="M80.98,175.403c-0.161,0.086-0.323,0.172-0.485,0.258c-0.727,0.389-0.954,1.238-0.81,1.99
				c0.042,0.218,0.083,0.436,0.125,0.653c0.115,0.593,0.689,1.112,1.258,1.257c3.73,0.952,8.979-2.212,12.399-3.505
				c5.732-2.168,11.465-4.335,17.196-6.503c3.318-1.255,2.055-6.422-1.493-5.419c-11.991,3.386-23.808,7.521-35.674,11.321
				c-3.039,0.973-1.781,5.316,1.305,4.735c9.719-1.828,19.333-4.325,28.964-6.577c-0.736-1.746-1.473-3.492-2.208-5.238
				c-8.179,5.345-17.344,8.132-26.667,10.763c-3.565,1.006-2.016,6.022,1.5,5.442c12.185-2.012,23.748-5.794,34.704-11.507
				c3.095-1.614,0.953-6.96-2.414-5.725c-12.664,4.648-25.407,9.397-39.075,9.431c0.282,2.087,0.565,4.174,0.848,6.262
				c14.518-4.234,29.075-8.341,43.636-12.425c1.928-0.541,3.452-3.249,2.062-5.067c-3.563-4.66-8.599-2.959-13.71-2.197
				c-8.054,1.199-16.146,1.83-24.285,1.957c0.603,2.227,1.206,4.451,1.808,6.678c4.747-2.942,11.632-3.367,17.042-4.548
				c5.817-1.271,11.632-2.552,17.456-3.794c3.608-0.77,3.278-6.025,0-6.978c-5.073-1.474-10.784-0.87-16.023-0.91
				c-5.993-0.047-11.986-0.07-17.979-0.087c0.629,2.325,1.26,4.65,1.889,6.975c6.087-2.643,12.797-2.547,19.304-2.49
				c2.961,0.026,4.517-3.173,3.239-5.644c-2.796-5.403-12.291-3.578-17.28-3.693c0.632,2.333,1.264,4.666,1.896,6.999
				c2.545-1.73,5.16-2.924,8.24-3.306c4.694-0.582,4.963-7.285,0-7.52c-9.897-0.467-19.614-0.071-29.428,1.261
				c-3.894,0.529-3.009,7.237,0.935,6.906c9.474-0.794,18.995-1.089,28.494-0.647c0-2.507,0-5.013,0-7.52
				c-4.428,0.553-8.326,1.815-12.032,4.339c-3.023,2.059-1.977,6.913,1.896,6.999c2.189,0.049,4.378,0.098,6.567,0.146
				c0.938,0.021,1.876,0.042,2.815,0.063c1.96,0.362,2.435,0.282,1.421-0.241c1.08-1.881,2.159-3.762,3.238-5.644
				c-8.029-0.064-15.631,0.286-23.082,3.528c-3.554,1.545-1.561,6.967,1.889,6.975c5.327,0.011,10.654,0.021,15.981,0.006
				c5.122-0.016,11.132-0.902,16.098,0.482c0-2.326,0-4.651,0-6.978c-6.455,1.448-12.92,2.851-19.381,4.269
				c-5.58,1.224-11.883,1.802-16.811,4.862c-2.945,1.829-1.84,6.737,1.809,6.677c5.634-0.093,11.254-0.399,16.857-1.01
				c2.183-0.237,4.364-0.51,6.537-0.827c1.356-0.198,8.107-2.263,9.185-0.909c0.507-1.922,1.014-3.844,1.521-5.766
				c-14.481,4.367-28.971,8.714-43.497,12.931c-3.425,0.994-2.799,6.266,0.847,6.261c14.25-0.016,27.609-4.675,40.741-9.766
				c-0.805-1.908-1.609-3.816-2.414-5.725c-10.341,5.633-21.42,9.536-33.042,11.474c0.5,1.813,1,3.628,1.5,5.442
				c9.773-2.689,19.573-5.53,28.059-11.256c2.644-1.784,1.049-6.051-2.208-5.238c-9.587,2.393-19.273,4.558-28.745,7.369
				c0.435,1.578,0.871,3.156,1.305,4.735c11.949-3.509,24.043-6.716,35.862-10.638c-0.721-1.712-1.443-3.424-2.164-5.136
				c-2.555,1.099-26.18,9.885-25.417,12.297c-0.27,0.663-0.54,1.326-0.809,1.989c0.151-0.104,0.302-0.209,0.453-0.313
				C84.541,177.133,82.969,174.342,80.98,175.403L80.98,175.403z"/>
		</g>
	</g>
	<g>
		<g>
			<path fill="#FDDD34" d="M53.723,190.267c4.645-0.259,9.289-0.518,13.933-0.776c2.749-0.153,2.767-4.448,0-4.295
				c-9.556,0.53-18.833,2.49-27.826,5.765c-2.548,0.928-1.501,4.348,1.098,3.982c12.505-1.753,24.914-3.543,37.528-4.355
				c3.805-0.245,3.756-6.273,0-5.908c-2,0.194-3.952,0.465-5.925,0.855c-2.158,0.428-2.156,3.93,0,4.359
				c1.984,0.396,3.897,0.622,5.925,0.693c0-1.97,0-3.939,0-5.908c-12.936,1.349-26.004,3.086-38.625,6.281
				c0.366,1.328,0.732,2.655,1.098,3.982c8.688-3.065,17.534-4.833,26.729-5.452c0-1.431,0-2.863,0-4.295
				c-4.644,0.313-9.289,0.628-13.933,0.941C51.09,186.314,51.056,190.415,53.723,190.267L53.723,190.267z"/>
		</g>
	</g>
	<g>
		<g>
			<path fill="#FDDD34" d="M82.401,185.845c2.996,0.336,5.777-0.719,8.08-2.59c0.959-0.779,0.906-2.408,0.197-3.3
				c-0.845-1.06-2.052-1.151-3.243-0.647c-0.87,0.369-1.645,0.818-2.563,1.071c-0.947,0.261-1.936,0.39-2.847,0.766
				c-1.337,0.552-2.142,2.742-0.459,3.519c2.517,1.162,6.145,0.559,8.406-1.015c-1.015-1.315-2.03-2.632-3.046-3.947
				c-1.158,1.427-2.663,2.395-4.525,2.572C80.092,182.494,80.119,185.59,82.401,185.845L82.401,185.845z"/>
		</g>
	</g>
</g>
</svg>
