<?xml version="1.0" encoding="utf-8"?>
<!-- Generator: Adobe Illustrator 16.0.0, SVG Export Plug-In . SVG Version: 6.00 Build 0)  -->
<!DOCTYPE svg PUBLIC "-//W3C//DTD SVG 1.1//EN" "http://www.w3.org/Graphics/SVG/1.1/DTD/svg11.dtd">
<svg version="1.1" id="Layer_1" xmlns="http://www.w3.org/2000/svg" xmlns:xlink="http://www.w3.org/1999/xlink" x="0px" y="0px"
	 width="321.368px" height="328.684px" viewBox="-423 212 321.368 328.684" enable-background="new -423 212 321.368 328.684"
	 xml:space="preserve">
<g>
	<rect x="0" y="0" fill="#23362F" width="321.368" height="328.684"/>
	<text transform="matrix(1 0 0 1 68.5903 328.6838)" fill="#D9D9D9" font-family="'ArialMT'" font-size="396.8504">N</text>
	<text transform="matrix(1 0 0 1 -25.5645 284.8381)" fill="#FCFCFC" font-family="'ArialMT'" font-size="396.8504">B</text>
</g>
<g>
	<rect x="-423" y="212" fill="#23362F" width="321.368" height="328.684"/>
	<g enable-background="new    ">
		<path fill="#D9D9D9" d="M-326.441,539.684V255.61h38.561l149.206,223.035V255.61h36.042v284.074h-38.561l-149.207-223.229v223.229
			H-326.441z"/>
	</g>
	<g enable-background="new    ">
		<path fill="#FCFCFC" d="M-420.498,497.838V213.766h106.576c21.703,0,39.109,2.875,52.222,8.623
			c13.11,5.748,23.38,14.6,30.811,26.547c7.427,11.949,11.142,24.449,11.142,37.494c0,12.145-3.294,23.578-9.883,34.299
			c-6.588,10.725-16.538,19.377-29.841,25.965c17.18,5.039,30.39,13.631,39.627,25.773c9.235,12.145,13.855,26.482,13.855,43.018
			c0,13.307-2.81,25.676-8.429,37.107c-5.62,11.434-12.565,20.25-20.831,26.451c-8.269,6.199-18.636,10.885-31.101,14.049
			c-12.468,3.166-27.743,4.746-45.828,4.746H-420.498z M-382.906,333.131h61.426c16.665,0,28.612-1.098,35.848-3.295
			c9.559-2.84,16.762-7.557,21.606-14.146c4.845-6.588,7.267-14.854,7.267-24.803c0-9.428-2.262-17.73-6.782-24.9
			c-4.523-7.168-10.981-12.076-19.377-14.727c-8.399-2.646-22.802-3.973-43.211-3.973h-56.776V333.131z M-382.906,464.315h70.728
			c12.141,0,20.667-0.451,25.578-1.355c8.653-1.551,15.89-4.133,21.703-7.752c5.813-3.613,10.591-8.879,14.339-15.791
			c3.746-6.91,5.62-14.889,5.62-23.932c0-10.592-2.713-19.795-8.139-27.613c-5.426-7.814-12.953-13.303-22.575-16.471
			c-9.625-3.164-23.48-4.748-41.564-4.748h-65.689V464.315z"/>
	</g>
</g>
</svg>
